<svg xmlns="http://www.w3.org/2000/svg" xmlns:xlink="http://www.w3.org/1999/xlink" width="414" zoomAndPan="magnify" viewBox="0 0 310.5 671.999985" height="896" preserveAspectRatio="xMidYMid meet" version="1.0"><defs><clipPath id="afc74768a3"><path d="M 23 621.054688 L 64 621.054688 L 64 659.992188 L 23 659.992188 Z M 23 621.054688 " clip-rule="nonzero"/></clipPath></defs><g clip-path="url(#afc74768a3)"><path fill="#545454" d="M 61.308594 641.34375 L 59.667969 641.34375 L 59.667969 658.160156 C 59.652344 658.386719 59.597656 658.605469 59.496094 658.8125 C 59.394531 659.015625 59.261719 659.195312 59.089844 659.351562 C 58.917969 659.503906 58.722656 659.617188 58.507812 659.695312 C 58.292969 659.769531 58.070312 659.800781 57.839844 659.789062 L 48.152344 659.789062 L 48.152344 648.328125 C 48.152344 648.167969 48.125 648.015625 48.0625 647.867188 C 48 647.722656 47.914062 647.59375 47.804688 647.480469 C 47.691406 647.367188 47.5625 647.28125 47.414062 647.21875 C 47.269531 647.160156 47.117188 647.128906 46.957031 647.128906 L 39.929688 647.128906 C 39.769531 647.128906 39.617188 647.160156 39.46875 647.21875 C 39.324219 647.28125 39.195312 647.367188 39.082031 647.480469 C 38.96875 647.59375 38.882812 647.722656 38.824219 647.867188 C 38.761719 648.015625 38.730469 648.167969 38.730469 648.328125 L 38.730469 659.789062 L 29.042969 659.789062 C 28.816406 659.800781 28.59375 659.769531 28.378906 659.695312 C 28.164062 659.617188 27.96875 659.503906 27.800781 659.351562 C 27.628906 659.199219 27.492188 659.019531 27.394531 658.816406 C 27.292969 658.609375 27.238281 658.390625 27.222656 658.164062 L 27.222656 641.34375 L 25.578125 641.34375 C 23.753906 641.34375 22.761719 639.625 23.960938 638.523438 L 41.980469 621.863281 C 42.207031 621.667969 42.460938 621.523438 42.742188 621.421875 C 43.023438 621.316406 43.308594 621.265625 43.609375 621.269531 C 43.90625 621.269531 44.195312 621.320312 44.472656 621.421875 C 44.753906 621.527344 45.007812 621.675781 45.230469 621.867188 C 51.132812 627.421875 57.035156 632.976562 62.941406 638.527344 C 64.113281 639.640625 63.125 641.34375 61.308594 641.34375 Z M 61.308594 641.34375 " fill-opacity="1" fill-rule="nonzero"/></g></svg>