<svg xmlns="http://www.w3.org/2000/svg" xmlns:xlink="http://www.w3.org/1999/xlink" width="414" zoomAndPan="magnify" viewBox="0 0 310.5 671.999985" height="896" preserveAspectRatio="xMidYMid meet" version="1.0"><defs><clipPath id="684da53e5d"><path d="M 238.492188 617.914062 L 283.421875 617.914062 L 283.421875 662.84375 L 238.492188 662.84375 Z M 238.492188 617.914062 " clip-rule="nonzero"/></clipPath></defs><g clip-path="url(#684da53e5d)"><path fill="#545454" d="M 283.132812 640.238281 C 283.132812 640.972656 283.097656 641.699219 283.027344 642.425781 C 282.957031 643.15625 282.847656 643.875 282.707031 644.59375 C 282.5625 645.3125 282.386719 646.019531 282.171875 646.71875 C 281.960938 647.417969 281.714844 648.105469 281.4375 648.78125 C 281.15625 649.457031 280.84375 650.117188 280.5 650.761719 C 280.15625 651.40625 279.78125 652.03125 279.375 652.636719 C 278.96875 653.246094 278.53125 653.832031 278.070312 654.398438 C 277.605469 654.960938 277.113281 655.503906 276.597656 656.019531 C 276.082031 656.535156 275.539062 657.027344 274.976562 657.492188 C 274.410156 657.953125 273.824219 658.390625 273.214844 658.796875 C 272.609375 659.203125 271.984375 659.578125 271.339844 659.921875 C 270.695312 660.265625 270.035156 660.578125 269.359375 660.859375 C 268.683594 661.136719 267.996094 661.382812 267.296875 661.59375 C 266.597656 661.808594 265.890625 661.984375 265.171875 662.128906 C 264.453125 662.269531 263.734375 662.378906 263.003906 662.449219 C 262.277344 662.519531 261.550781 662.554688 260.816406 662.554688 C 260.085938 662.554688 259.359375 662.519531 258.628906 662.449219 C 257.902344 662.378906 257.179688 662.269531 256.464844 662.128906 C 255.746094 661.984375 255.039062 661.808594 254.339844 661.59375 C 253.640625 661.382812 252.953125 661.136719 252.277344 660.859375 C 251.601562 660.578125 250.941406 660.265625 250.296875 659.921875 C 249.652344 659.578125 249.027344 659.203125 248.421875 658.796875 C 247.8125 658.390625 247.226562 657.953125 246.660156 657.492188 C 246.097656 657.027344 245.554688 656.535156 245.039062 656.019531 C 244.519531 655.503906 244.03125 654.960938 243.566406 654.398438 C 243.105469 653.832031 242.667969 653.246094 242.261719 652.636719 C 241.855469 652.03125 241.480469 651.40625 241.136719 650.761719 C 240.792969 650.117188 240.480469 649.457031 240.199219 648.78125 C 239.921875 648.105469 239.675781 647.417969 239.464844 646.71875 C 239.25 646.019531 239.074219 645.3125 238.929688 644.59375 C 238.789062 643.875 238.679688 643.15625 238.609375 642.425781 C 238.539062 641.699219 238.503906 640.972656 238.503906 640.238281 C 238.503906 639.507812 238.539062 638.78125 238.609375 638.050781 C 238.679688 637.324219 238.789062 636.601562 238.929688 635.886719 C 239.074219 635.167969 239.25 634.460938 239.464844 633.761719 C 239.675781 633.0625 239.921875 632.375 240.199219 631.699219 C 240.480469 631.023438 240.792969 630.363281 241.136719 629.71875 C 241.480469 629.074219 241.855469 628.449219 242.261719 627.84375 C 242.667969 627.234375 243.105469 626.648438 243.566406 626.082031 C 244.03125 625.519531 244.519531 624.976562 245.039062 624.460938 C 245.554688 623.941406 246.097656 623.453125 246.660156 622.988281 C 247.226562 622.527344 247.8125 622.089844 248.421875 621.683594 C 249.027344 621.277344 249.652344 620.902344 250.296875 620.558594 C 250.941406 620.214844 251.601562 619.902344 252.277344 619.621094 C 252.953125 619.34375 253.640625 619.097656 254.339844 618.886719 C 255.039062 618.671875 255.746094 618.496094 256.464844 618.351562 C 257.179688 618.210938 257.902344 618.101562 258.628906 618.03125 C 259.359375 617.960938 260.085938 617.925781 260.816406 617.925781 C 261.550781 617.925781 262.277344 617.960938 263.003906 618.03125 C 263.734375 618.101562 264.453125 618.210938 265.171875 618.351562 C 265.890625 618.496094 266.597656 618.671875 267.296875 618.886719 C 267.996094 619.097656 268.683594 619.34375 269.359375 619.621094 C 270.035156 619.902344 270.695312 620.214844 271.339844 620.558594 C 271.984375 620.902344 272.609375 621.277344 273.214844 621.683594 C 273.824219 622.089844 274.410156 622.527344 274.976562 622.988281 C 275.539062 623.453125 276.082031 623.941406 276.597656 624.460938 C 277.113281 624.976562 277.605469 625.519531 278.070312 626.082031 C 278.53125 626.648438 278.96875 627.234375 279.375 627.84375 C 279.78125 628.449219 280.15625 629.074219 280.5 629.71875 C 280.84375 630.363281 281.15625 631.023438 281.4375 631.699219 C 281.714844 632.375 281.960938 633.0625 282.171875 633.761719 C 282.386719 634.460938 282.5625 635.167969 282.707031 635.886719 C 282.847656 636.601562 282.957031 637.324219 283.027344 638.050781 C 283.097656 638.78125 283.132812 639.507812 283.132812 640.238281 Z M 283.132812 640.238281 " fill-opacity="1" fill-rule="nonzero"/></g><path fill="#ffffff" d="M 251.195312 629 C 249.453125 629 248.023438 630.425781 248.023438 632.171875 L 248.023438 634.542969 L 273.609375 634.542969 L 273.609375 632.171875 C 273.609375 630.425781 272.183594 629 270.441406 629 L 269.933594 629 L 269.933594 630.382812 C 269.933594 631.433594 269.078125 632.289062 268.027344 632.289062 C 266.976562 632.289062 266.121094 631.433594 266.121094 630.382812 L 266.121094 629 L 255.515625 629 L 255.515625 630.382812 C 255.515625 631.433594 254.660156 632.289062 253.609375 632.289062 C 252.558594 632.289062 251.703125 631.433594 251.703125 630.382812 L 251.703125 629 Z M 271.148438 637.515625 L 266.542969 637.515625 L 266.542969 641.871094 L 271.148438 641.871094 Z M 265.425781 637.515625 L 261.375 637.515625 L 261.375 641.871094 L 265.425781 641.871094 Z M 260.261719 637.515625 L 256.210938 637.515625 L 256.210938 641.871094 L 260.261719 641.871094 Z M 255.09375 637.515625 L 250.488281 637.515625 L 250.488281 641.871094 L 255.09375 641.871094 Z M 250.488281 642.988281 L 250.488281 646.785156 L 255.09375 646.785156 L 255.09375 642.988281 Z M 256.210938 646.785156 L 260.261719 646.785156 L 260.261719 642.988281 L 256.210938 642.988281 Z M 261.375 646.785156 L 265.425781 646.785156 L 265.425781 642.988281 L 261.375 642.988281 Z M 266.542969 646.785156 L 271.148438 646.785156 L 271.148438 642.988281 L 266.542969 642.988281 Z M 250.488281 647.898438 L 250.488281 652.253906 L 255.09375 652.253906 L 255.09375 647.898438 Z M 256.210938 652.253906 L 260.261719 652.253906 L 260.261719 647.898438 L 256.210938 647.898438 Z M 261.375 652.253906 L 265.425781 652.253906 L 265.425781 647.898438 L 261.375 647.898438 Z M 266.542969 652.253906 L 271.148438 652.253906 L 271.148438 647.898438 L 266.542969 647.898438 Z M 264.035156 632.25 L 257.601562 632.25 L 257.601562 631.613281 L 264.035156 631.613281 Z M 248.023438 635.183594 L 248.023438 651.414062 C 248.023438 653.160156 249.453125 654.585938 251.195312 654.585938 L 270.441406 654.585938 C 272.183594 654.585938 273.609375 653.160156 273.609375 651.414062 L 273.609375 635.183594 Z M 248.023438 635.183594 " fill-opacity="1" fill-rule="evenodd"/><path fill="#ffffff" d="M 268.027344 625.894531 C 268.195312 625.894531 268.355469 625.925781 268.511719 625.992188 C 268.667969 626.054688 268.804688 626.148438 268.921875 626.265625 C 269.042969 626.382812 269.132812 626.523438 269.199219 626.675781 C 269.261719 626.832031 269.296875 626.996094 269.296875 627.164062 L 269.296875 630.382812 C 269.296875 630.550781 269.261719 630.714844 269.199219 630.867188 C 269.132812 631.023438 269.042969 631.160156 268.921875 631.28125 C 268.804688 631.398438 268.667969 631.492188 268.511719 631.554688 C 268.355469 631.621094 268.195312 631.652344 268.027344 631.652344 C 267.859375 631.652344 267.695312 631.621094 267.542969 631.554688 C 267.386719 631.492188 267.25 631.398438 267.128906 631.28125 C 267.011719 631.160156 266.917969 631.023438 266.855469 630.867188 C 266.789062 630.714844 266.757812 630.550781 266.757812 630.382812 L 266.757812 627.164062 C 266.757812 626.996094 266.789062 626.832031 266.855469 626.675781 C 266.917969 626.523438 267.011719 626.382812 267.128906 626.265625 C 267.25 626.148438 267.386719 626.054688 267.542969 625.992188 C 267.695312 625.925781 267.859375 625.894531 268.027344 625.894531 Z M 268.027344 625.894531 " fill-opacity="1" fill-rule="evenodd"/><path fill="#ffffff" d="M 253.609375 625.894531 C 253.777344 625.894531 253.9375 625.925781 254.09375 625.992188 C 254.25 626.054688 254.386719 626.148438 254.507812 626.265625 C 254.625 626.382812 254.71875 626.523438 254.78125 626.675781 C 254.847656 626.832031 254.878906 626.996094 254.878906 627.164062 L 254.878906 630.382812 C 254.878906 630.550781 254.847656 630.714844 254.78125 630.867188 C 254.71875 631.023438 254.625 631.160156 254.507812 631.28125 C 254.386719 631.398438 254.25 631.492188 254.09375 631.554688 C 253.9375 631.621094 253.777344 631.652344 253.609375 631.652344 C 253.441406 631.652344 253.277344 631.621094 253.125 631.554688 C 252.96875 631.492188 252.832031 631.398438 252.710938 631.28125 C 252.59375 631.160156 252.5 631.023438 252.4375 630.867188 C 252.371094 630.714844 252.339844 630.550781 252.339844 630.382812 L 252.339844 627.164062 C 252.339844 626.996094 252.371094 626.832031 252.4375 626.675781 C 252.5 626.523438 252.59375 626.382812 252.710938 626.265625 C 252.832031 626.148438 252.96875 626.054688 253.125 625.992188 C 253.277344 625.925781 253.441406 625.894531 253.609375 625.894531 Z M 253.609375 625.894531 " fill-opacity="1" fill-rule="evenodd"/></svg>