<svg xmlns="http://www.w3.org/2000/svg" xmlns:xlink="http://www.w3.org/1999/xlink" width="414" zoomAndPan="magnify" viewBox="0 0 310.5 671.999985" height="896" preserveAspectRatio="xMidYMid meet" version="1.0"><defs><clipPath id="29a9de3023"><path d="M 131.519531 617.914062 L 176.449219 617.914062 L 176.449219 662.84375 L 131.519531 662.84375 Z M 131.519531 617.914062 " clip-rule="nonzero"/></clipPath></defs><g clip-path="url(#29a9de3023)"><path fill="#545454" d="M 153.832031 619.96875 C 156.570312 619.96875 159.222656 620.503906 161.71875 621.558594 C 164.128906 622.578125 166.296875 624.039062 168.15625 625.902344 C 170.019531 627.761719 171.480469 629.929688 172.5 632.34375 C 173.554688 634.839844 174.089844 637.492188 174.089844 640.226562 C 174.089844 642.960938 173.554688 645.617188 172.5 648.113281 C 171.480469 650.523438 170.019531 652.691406 168.15625 654.550781 C 166.296875 656.414062 164.128906 657.875 161.71875 658.894531 C 159.222656 659.949219 156.566406 660.484375 153.832031 660.484375 C 151.097656 660.484375 148.445312 659.949219 145.949219 658.894531 C 143.535156 657.875 141.367188 656.414062 139.507812 654.550781 C 137.648438 652.691406 136.183594 650.523438 135.164062 648.113281 C 134.109375 645.617188 133.574219 642.960938 133.574219 640.226562 C 133.574219 637.492188 134.109375 634.839844 135.164062 632.34375 C 136.183594 629.929688 137.644531 627.761719 139.507812 625.902344 C 141.367188 624.042969 143.535156 622.578125 145.949219 621.558594 C 148.445312 620.503906 151.097656 619.96875 153.832031 619.96875 M 153.832031 617.914062 C 141.511719 617.914062 131.519531 627.90625 131.519531 640.226562 C 131.519531 652.550781 141.511719 662.539062 153.832031 662.539062 C 166.15625 662.539062 176.144531 652.550781 176.144531 640.226562 C 176.144531 627.90625 166.15625 617.914062 153.832031 617.914062 Z M 153.832031 617.914062 " fill-opacity="1" fill-rule="nonzero"/></g><path fill="#545454" d="M 162.960938 638.410156 C 163.390625 638.558594 163.851562 638.640625 164.328125 638.640625 C 164.546875 638.640625 164.757812 638.625 164.96875 638.589844 C 165.105469 638.570312 165.242188 638.542969 165.375 638.507812 C 165.429688 638.492188 165.484375 638.476562 165.539062 638.460938 C 165.59375 638.445312 165.644531 638.429688 165.695312 638.410156 C 165.722656 638.402344 165.746094 638.394531 165.769531 638.386719 C 165.835938 638.363281 165.898438 638.335938 165.960938 638.308594 C 166.085938 638.257812 166.207031 638.199219 166.328125 638.132812 C 166.445312 638.070312 166.5625 638 166.671875 637.921875 C 166.894531 637.773438 167.105469 637.601562 167.292969 637.410156 C 167.386719 637.316406 167.476562 637.21875 167.5625 637.113281 C 167.605469 637.0625 167.648438 637.007812 167.6875 636.957031 C 167.769531 636.847656 167.84375 636.734375 167.914062 636.621094 C 167.949219 636.5625 167.980469 636.503906 168.015625 636.445312 C 168.078125 636.328125 168.136719 636.203125 168.191406 636.078125 C 168.402344 635.578125 168.519531 635.023438 168.519531 634.445312 C 168.519531 634.15625 168.492188 633.875 168.433594 633.601562 C 168.394531 633.394531 168.335938 633.195312 168.265625 633.003906 C 168.242188 632.9375 168.21875 632.875 168.191406 632.8125 C 168.050781 632.484375 167.871094 632.175781 167.65625 631.898438 C 166.890625 630.898438 165.683594 630.253906 164.328125 630.253906 C 162.96875 630.253906 161.765625 630.898438 160.996094 631.898438 C 160.78125 632.175781 160.601562 632.484375 160.464844 632.8125 C 160.4375 632.875 160.410156 632.9375 160.390625 633.003906 C 160.316406 633.195312 160.261719 633.394531 160.21875 633.601562 C 160.164062 633.875 160.132812 634.15625 160.132812 634.445312 C 160.132812 636.28125 161.316406 637.839844 162.960938 638.410156 Z M 162.960938 638.410156 " fill-opacity="1" fill-rule="nonzero"/><path fill="#545454" d="M 172.285156 644.894531 C 172.28125 644.804688 172.269531 644.714844 172.257812 644.625 C 172.230469 644.449219 172.183594 644.273438 172.121094 644.109375 C 172.085938 644.027344 172.050781 643.945312 172.007812 643.863281 C 172.007812 643.863281 172.003906 643.851562 172.003906 643.851562 C 172 643.847656 171.996094 643.839844 171.992188 643.835938 C 171.992188 643.832031 171.988281 643.828125 171.988281 643.824219 L 169.945312 640.050781 C 169.902344 639.976562 169.859375 639.902344 169.808594 639.835938 C 169.757812 639.765625 169.703125 639.703125 169.644531 639.644531 C 169.558594 639.550781 169.460938 639.472656 169.359375 639.402344 C 169.292969 639.351562 169.21875 639.3125 169.144531 639.273438 C 169.082031 639.238281 169.015625 639.210938 168.945312 639.1875 C 168.742188 639.109375 168.519531 639.070312 168.296875 639.070312 L 160.359375 639.070312 C 160.296875 639.070312 160.230469 639.074219 160.167969 639.078125 C 160.074219 639.089844 159.980469 639.105469 159.886719 639.128906 C 159.796875 639.152344 159.707031 639.183594 159.621094 639.21875 C 159.238281 639.382812 158.917969 639.671875 158.710938 640.050781 L 158.167969 641.058594 L 158.566406 641.058594 C 159.636719 641.058594 160.613281 641.640625 161.125 642.578125 L 163.570312 647.101562 C 163.578125 647.113281 163.585938 647.128906 163.589844 647.140625 L 163.597656 647.152344 L 163.734375 647.40625 C 163.734375 647.40625 163.953125 647.40625 163.953125 647.40625 L 172.285156 647.40625 Z M 172.285156 644.894531 " fill-opacity="1" fill-rule="nonzero"/><path fill="#545454" d="M 141.519531 638.226562 C 141.664062 638.296875 141.8125 638.355469 141.96875 638.410156 C 142.007812 638.425781 142.046875 638.4375 142.089844 638.449219 C 142.15625 638.472656 142.222656 638.492188 142.289062 638.507812 C 142.625 638.59375 142.976562 638.640625 143.335938 638.640625 C 143.816406 638.640625 144.273438 638.558594 144.703125 638.410156 C 144.8125 638.371094 144.921875 638.332031 145.027344 638.285156 C 145.132812 638.238281 145.234375 638.1875 145.335938 638.132812 C 145.453125 638.070312 145.570312 638 145.679688 637.921875 C 145.902344 637.773438 146.109375 637.601562 146.300781 637.410156 C 146.394531 637.316406 146.484375 637.21875 146.570312 637.113281 C 146.613281 637.0625 146.65625 637.007812 146.695312 636.957031 C 146.773438 636.847656 146.851562 636.734375 146.921875 636.621094 C 146.957031 636.5625 146.988281 636.503906 147.019531 636.445312 C 147.085938 636.324219 147.144531 636.203125 147.199219 636.078125 C 147.410156 635.578125 147.527344 635.023438 147.527344 634.445312 C 147.527344 634.15625 147.496094 633.875 147.441406 633.601562 C 147.402344 633.394531 147.34375 633.195312 147.273438 633.003906 C 147.25 632.9375 147.226562 632.875 147.199219 632.8125 C 147.078125 632.53125 146.929688 632.265625 146.753906 632.019531 C 145.992188 630.949219 144.746094 630.253906 143.335938 630.253906 C 141.976562 630.253906 140.769531 630.898438 140.003906 631.898438 C 139.789062 632.175781 139.609375 632.484375 139.472656 632.8125 C 139.445312 632.875 139.417969 632.9375 139.394531 633.003906 C 139.324219 633.195312 139.269531 633.394531 139.226562 633.601562 C 139.171875 633.875 139.140625 634.15625 139.140625 634.445312 C 139.140625 636.109375 140.113281 637.546875 141.515625 638.226562 Z M 141.519531 638.226562 " fill-opacity="1" fill-rule="nonzero"/><path fill="#545454" d="M 149.050781 641.058594 L 149.496094 641.058594 L 148.953125 640.050781 C 148.914062 639.972656 148.867188 639.902344 148.816406 639.835938 C 148.765625 639.765625 148.710938 639.703125 148.65625 639.640625 C 148.566406 639.550781 148.472656 639.46875 148.367188 639.398438 C 148.300781 639.351562 148.230469 639.308594 148.15625 639.273438 C 148.117188 639.253906 148.078125 639.234375 148.042969 639.21875 C 147.8125 639.121094 147.5625 639.070312 147.304688 639.070312 L 139.367188 639.070312 C 139.144531 639.070312 138.921875 639.109375 138.71875 639.1875 C 138.6875 639.195312 138.660156 639.207031 138.632812 639.21875 C 138.59375 639.238281 138.554688 639.253906 138.519531 639.273438 C 138.445312 639.3125 138.375 639.351562 138.304688 639.402344 C 138.203125 639.472656 138.105469 639.550781 138.019531 639.644531 C 137.960938 639.703125 137.90625 639.765625 137.855469 639.835938 C 137.804688 639.902344 137.761719 639.976562 137.71875 640.050781 L 135.675781 643.824219 C 135.671875 643.835938 135.667969 643.84375 135.660156 643.851562 L 135.65625 643.863281 C 135.613281 643.945312 135.578125 644.027344 135.546875 644.109375 C 135.480469 644.273438 135.433594 644.449219 135.40625 644.625 C 135.394531 644.714844 135.382812 644.804688 135.378906 644.894531 L 135.378906 647.40625 C 135.378906 647.40625 137.734375 647.40625 137.734375 647.40625 L 143.882812 647.40625 C 143.882812 647.40625 144.023438 647.152344 144.023438 647.152344 L 144.027344 647.144531 C 144.035156 647.128906 144.042969 647.117188 144.046875 647.105469 L 146.496094 642.582031 C 147.007812 641.640625 147.984375 641.058594 149.054688 641.058594 Z M 149.050781 641.058594 " fill-opacity="1" fill-rule="nonzero"/><path fill="#545454" d="M 150.429688 639.894531 C 150.5 639.960938 150.578125 640.023438 150.652344 640.085938 C 150.746094 640.160156 150.84375 640.234375 150.941406 640.304688 C 151.054688 640.382812 151.171875 640.457031 151.292969 640.527344 C 151.542969 640.671875 151.804688 640.796875 152.082031 640.898438 C 152.253906 640.960938 152.433594 641.011719 152.613281 641.058594 C 152.675781 641.074219 152.734375 641.085938 152.796875 641.101562 C 152.878906 641.117188 152.960938 641.132812 153.042969 641.144531 C 153.210938 641.167969 153.378906 641.1875 153.550781 641.195312 C 153.636719 641.199219 153.722656 641.203125 153.808594 641.203125 C 154.222656 641.203125 154.621094 641.152344 155.007812 641.058594 C 155.429688 640.953125 155.832031 640.796875 156.207031 640.597656 C 156.3125 640.539062 156.417969 640.476562 156.519531 640.410156 C 156.621094 640.34375 156.722656 640.273438 156.816406 640.203125 C 156.949219 640.105469 157.070312 640.003906 157.191406 639.894531 C 157.25 639.839844 157.308594 639.785156 157.363281 639.730469 C 157.476562 639.617188 157.585938 639.496094 157.691406 639.371094 C 157.792969 639.25 157.890625 639.117188 157.980469 638.984375 C 158.386719 638.382812 158.664062 637.6875 158.78125 636.9375 C 158.816406 636.6875 158.835938 636.433594 158.835938 636.171875 C 158.835938 636 158.828125 635.828125 158.8125 635.660156 C 158.777344 635.320312 158.710938 634.992188 158.613281 634.679688 C 158.539062 634.441406 158.449219 634.214844 158.34375 633.996094 C 158.304688 633.921875 158.269531 633.847656 158.230469 633.777344 C 158.152344 633.632812 158.070312 633.496094 157.980469 633.363281 C 157.753906 633.027344 157.488281 632.722656 157.191406 632.453125 C 156.96875 632.25 156.726562 632.066406 156.46875 631.90625 C 155.699219 631.425781 154.789062 631.148438 153.8125 631.148438 C 152.835938 631.148438 151.921875 631.425781 151.152344 631.90625 C 150.894531 632.066406 150.652344 632.25 150.429688 632.453125 C 150.371094 632.507812 150.3125 632.5625 150.253906 632.621094 C 149.347656 633.527344 148.78125 634.785156 148.78125 636.175781 C 148.78125 637.648438 149.417969 638.976562 150.429688 639.894531 Z M 150.429688 639.894531 " fill-opacity="1" fill-rule="nonzero"/><path fill="#545454" d="M 163.347656 648.699219 C 163.347656 648.644531 163.34375 648.59375 163.335938 648.539062 C 163.320312 648.378906 163.292969 648.21875 163.25 648.066406 C 163.25 648.066406 163.25 648.066406 163.25 648.0625 C 163.238281 648.011719 163.222656 647.960938 163.207031 647.910156 C 163.171875 647.808594 163.132812 647.707031 163.089844 647.613281 C 163.066406 647.5625 163.042969 647.515625 163.019531 647.46875 C 163.019531 647.46875 163.011719 647.453125 163.011719 647.453125 C 163.003906 647.441406 163 647.429688 162.992188 647.417969 L 162.988281 647.40625 C 162.988281 647.40625 160.542969 642.894531 160.542969 642.894531 C 160.371094 642.578125 160.128906 642.3125 159.84375 642.113281 C 159.761719 642.058594 159.675781 642.003906 159.589844 641.960938 C 159.5 641.914062 159.40625 641.875 159.3125 641.84375 C 159.226562 641.8125 159.132812 641.785156 159.042969 641.765625 C 158.886719 641.734375 158.730469 641.714844 158.566406 641.714844 L 149.050781 641.714844 C 148.8125 641.714844 148.574219 641.757812 148.351562 641.828125 C 148.324219 641.835938 148.296875 641.847656 148.269531 641.859375 C 148.1875 641.886719 148.109375 641.921875 148.035156 641.960938 C 147.945312 642.003906 147.859375 642.058594 147.777344 642.113281 C 147.652344 642.199219 147.539062 642.296875 147.433594 642.402344 C 147.367188 642.476562 147.300781 642.550781 147.242188 642.632812 C 147.179688 642.714844 147.125 642.804688 147.078125 642.894531 L 144.632812 647.40625 L 144.628906 647.417969 C 144.625 647.425781 144.621094 647.433594 144.617188 647.4375 C 144.613281 647.441406 144.613281 647.445312 144.609375 647.449219 L 144.601562 647.464844 C 144.5625 647.546875 144.523438 647.628906 144.488281 647.714844 C 144.476562 647.742188 144.464844 647.769531 144.457031 647.796875 C 144.421875 647.882812 144.394531 647.972656 144.371094 648.0625 C 144.34375 648.15625 144.324219 648.253906 144.308594 648.347656 C 144.300781 648.410156 144.289062 648.472656 144.285156 648.539062 C 144.277344 648.589844 144.273438 648.644531 144.273438 648.699219 L 144.269531 648.699219 L 144.269531 651.714844 L 163.351562 651.714844 L 163.351562 648.699219 Z M 163.347656 648.699219 " fill-opacity="1" fill-rule="nonzero"/></svg>